<?xml version="1.0" encoding="UTF-8"?>
<svg xmlns="http://www.w3.org/2000/svg" xmlns:xlink="http://www.w3.org/1999/xlink" width="22pt" height="22pt" viewBox="0 0 22 22" version="1.1">
<g id="surface1">
<path style=" stroke:none;fill-rule:nonzero;fill:rgb(0%,0%,0%);fill-opacity:1;" d="M 10.097656 8.25 L 10.097656 6.402344 L 11.902344 6.402344 L 11.902344 8.25 Z M 11 18.347656 C 13.003906 18.347656 14.730469 17.625 16.179688 16.179688 C 17.625 14.730469 18.347656 13.003906 18.347656 11 C 18.347656 8.996094 17.625 7.269531 16.179688 5.820312 C 14.730469 4.375 13.003906 3.652344 11 3.652344 C 8.996094 3.652344 7.269531 4.375 5.820312 5.820312 C 4.375 7.269531 3.652344 8.996094 3.652344 11 C 3.652344 13.003906 4.375 14.730469 5.820312 16.179688 C 7.269531 17.625 8.996094 18.347656 11 18.347656 Z M 11 1.847656 C 13.519531 1.847656 15.675781 2.742188 17.46875 4.53125 C 19.257812 6.324219 20.152344 8.480469 20.152344 11 C 20.152344 13.519531 19.257812 15.675781 17.46875 17.46875 C 15.675781 19.257812 13.519531 20.152344 11 20.152344 C 8.480469 20.152344 6.324219 19.257812 4.53125 17.46875 C 2.742188 15.675781 1.847656 13.519531 1.847656 11 C 1.847656 8.480469 2.742188 6.324219 4.53125 4.53125 C 6.324219 2.742188 8.480469 1.847656 11 1.847656 Z M 10.097656 15.597656 L 10.097656 10.097656 L 11.902344 10.097656 L 11.902344 15.597656 Z M 10.097656 15.597656 "/>
</g>
</svg>
