<!-- Generated by IcoMoon.io -->
<svg version="1.1" xmlns="http://www.w3.org/2000/svg" width="768" height="768" viewBox="0 0 768 768">
<title></title>
<g id="icomoon-ignore">
</g>
<path fill="#000" d="M640.5 448.5v-192h-96v63h-64.5v-63h-192v63h-64.5v-63h-96v192h513zM640.5 607.5v-63h-513v63h513zM288 127.5v64.5h192v-64.5h-192zM640.5 192q27 0 45 18.75t18 45.75v351q0 27-18 45.75t-45 18.75h-513q-27 0-45-18.75t-18-45.75v-351q0-27 18-45.75t45-18.75h96v-64.5q0-27 18.75-45t45.75-18h192q27 0 45.75 18t18.75 45v64.5h96z"></path>
</svg>
