<?xml version="1.0" encoding="UTF-8"?>
<svg xmlns="http://www.w3.org/2000/svg" xmlns:xlink="http://www.w3.org/1999/xlink" width="22pt" height="22pt" viewBox="0 0 22 22" version="1.1">
<g id="surface1">
<path style=" stroke:none;fill-rule:nonzero;fill:rgb(0%,0%,0%);fill-opacity:1;" d="M 18.347656 12.847656 L 18.347656 7.347656 L 15.597656 7.347656 L 15.597656 9.152344 L 13.75 9.152344 L 13.75 7.347656 L 8.25 7.347656 L 8.25 9.152344 L 6.402344 9.152344 L 6.402344 7.347656 L 3.652344 7.347656 L 3.652344 12.847656 Z M 18.347656 17.402344 L 18.347656 15.597656 L 3.652344 15.597656 L 3.652344 17.402344 Z M 8.25 3.652344 L 8.25 5.5 L 13.75 5.5 L 13.75 3.652344 Z M 18.347656 5.5 C 18.863281 5.5 19.292969 5.679688 19.636719 6.039062 C 19.980469 6.394531 20.152344 6.832031 20.152344 7.347656 L 20.152344 17.402344 C 20.152344 17.917969 19.980469 18.355469 19.636719 18.710938 C 19.292969 19.070312 18.863281 19.25 18.347656 19.25 L 3.652344 19.25 C 3.136719 19.25 2.707031 19.070312 2.363281 18.710938 C 2.019531 18.355469 1.847656 17.917969 1.847656 17.402344 L 1.847656 7.347656 C 1.847656 6.832031 2.019531 6.394531 2.363281 6.039062 C 2.707031 5.679688 3.136719 5.5 3.652344 5.5 L 6.402344 5.5 L 6.402344 3.652344 C 6.402344 3.136719 6.582031 2.707031 6.9375 2.363281 C 7.296875 2.019531 7.734375 1.847656 8.25 1.847656 L 13.75 1.847656 C 14.265625 1.847656 14.703125 2.019531 15.0625 2.363281 C 15.417969 2.707031 15.597656 3.136719 15.597656 3.652344 L 15.597656 5.5 Z M 18.347656 5.5 "/>
</g>
</svg>
